<svg width="20" height="16" viewBox="0 0 20 16" fill="none" xmlns="http://www.w3.org/2000/svg">
<path d="M3.2085 0.208374H16.7502C17.579 0.208374 18.3738 0.537614 18.9599 1.12367C19.5459 1.70972 19.8752 2.50457 19.8752 3.33337V12.7084C19.8752 13.5372 19.5459 14.332 18.9599 14.9181C18.3738 15.5041 17.579 15.8334 16.7502 15.8334H3.2085C2.37969 15.8334 1.58484 15.5041 0.998787 14.9181C0.412736 14.332 0.0834961 13.5372 0.0834961 12.7084V3.33337C0.0834961 2.50457 0.412736 1.70972 0.998787 1.12367C1.58484 0.537614 2.37969 0.208374 3.2085 0.208374ZM3.2085 1.25004C2.70016 1.25004 2.2335 1.43233 1.87204 1.73546L9.97933 7.00004L18.0866 1.73546C17.7122 1.4213 17.2389 1.2494 16.7502 1.25004H3.2085ZM9.97933 8.24171L1.26475 2.58337C1.17234 2.82262 1.12501 3.0769 1.12516 3.33337V12.7084C1.12516 13.2609 1.34466 13.7908 1.73536 14.1815C2.12606 14.5722 2.65596 14.7917 3.2085 14.7917H16.7502C17.3027 14.7917 17.8326 14.5722 18.2233 14.1815C18.614 13.7908 18.8335 13.2609 18.8335 12.7084V3.33337C18.8335 3.06879 18.7845 2.81567 18.6939 2.58337L9.97933 8.24067V8.24171Z" fill="#AA0009"/>
</svg>
