<svg width="14" height="20" viewBox="0 0 14 20" fill="none" xmlns="http://www.w3.org/2000/svg">
<path d="M6.97927 4.29162C7.66993 4.29162 8.33231 4.56599 8.82069 5.05437C9.30907 5.54274 9.58343 6.20512 9.58343 6.89579C9.58343 7.58646 9.30907 8.24884 8.82069 8.73721C8.33231 9.22559 7.66993 9.49996 6.97927 9.49996C6.2886 9.49996 5.62622 9.22559 5.13784 8.73721C4.64947 8.24884 4.3751 7.58646 4.3751 6.89579C4.3751 6.20512 4.64947 5.54274 5.13784 5.05437C5.62622 4.56599 6.2886 4.29162 6.97927 4.29162ZM6.97927 5.33329C6.56486 5.33329 6.16744 5.49791 5.87441 5.79093C5.58139 6.08396 5.41677 6.48139 5.41677 6.89579C5.41677 7.31019 5.58139 7.70762 5.87441 8.00064C6.16744 8.29367 6.56486 8.45829 6.97927 8.45829C7.39367 8.45829 7.79109 8.29367 8.08412 8.00064C8.37715 7.70762 8.54177 7.31019 8.54177 6.89579C8.54177 6.48139 8.37715 6.08396 8.08412 5.79093C7.79109 5.49791 7.39367 5.33329 6.97927 5.33329ZM2.08343 9.87183L6.97927 17.9239L11.8751 9.87183C12.4031 9.00308 12.6904 8.00948 12.7076 6.99301C12.7248 5.97653 12.4712 4.97379 11.9728 4.08771C11.4745 3.20162 10.7493 2.4641 9.87174 1.95084C8.9942 1.43758 7.99589 1.16707 6.97927 1.16707C5.96265 1.16707 4.96433 1.43758 4.08679 1.95084C3.20925 2.4641 2.48408 3.20162 1.98572 4.08771C1.48735 4.97379 1.23374 5.97653 1.25092 6.99301C1.26809 8.00948 1.55542 9.00308 2.08343 9.87183ZM12.7647 10.4135L6.97927 19.9291L1.19385 10.4135C0.570016 9.38678 0.230599 8.21256 0.210427 7.01135C0.190256 5.81013 0.490057 4.62518 1.07906 3.5781C1.66807 2.53101 2.52507 1.6595 3.56212 1.05299C4.59917 0.446485 5.77892 0.126831 6.98031 0.126831C8.18169 0.126831 9.36144 0.446485 10.3985 1.05299C11.4355 1.6595 12.2925 2.53101 12.8815 3.5781C13.4706 4.62518 13.7704 5.81013 13.7502 7.01135C13.73 8.21256 13.3906 9.38678 12.7668 10.4135H12.7647Z" fill="#AA0009"/>
</svg>
